<svg xmlns="http://www.w3.org/2000/svg" viewBox="0 0 64 64">
  <rect width="64" height="64" rx="14" fill="#090e1a"/>
  <rect x="10" y="10" width="18" height="18" rx="4" fill="none" stroke="#f4f6fb" stroke-width="4"/>
  <rect x="16" y="16" width="6" height="6" rx="1.5" fill="#22c55e"/>
  <rect x="38" y="10" width="7" height="7" rx="2" fill="#f4f6fb"/>
  <rect x="49" y="14" width="5" height="5" rx="1.5" fill="#6366f1"/>
  <rect x="42" y="22" width="6" height="6" rx="1.5" fill="#22c55e"/>
  <rect x="52" y="26" width="4" height="4" rx="1.2" fill="#f4f6fb"/>
  <rect x="10" y="38" width="6" height="6" rx="1.5" fill="#f4f6fb"/>
  <rect x="20" y="42" width="5" height="5" rx="1.5" fill="#22d3ee"/>
  <rect x="10" y="50" width="7" height="7" rx="2" fill="#22c55e"/>
  <rect x="30" y="36" width="24" height="8" rx="2.5" fill="#22c55e"/>
  <rect x="30" y="48" width="16" height="8" rx="2.5" fill="#f4f6fb"/>
  <rect x="50" y="48" width="6" height="8" rx="2" fill="#6366f1"/>
</svg>
